<svg width="177" height="178" viewBox="0 0 177 178" fill="none" xmlns="http://www.w3.org/2000/svg">
<g filter="url(#filter0_d)">
<g clip-path="url(#clip0)">
<path d="M144.79 141.329C175.884 110.218 175.884 59.7786 144.79 28.6682C113.696 -2.44221 63.2833 -2.44222 32.1894 28.6682C1.0955 59.7786 1.0955 110.218 32.1894 141.329C63.2833 172.439 113.696 172.439 144.79 141.329Z" fill="#1D1E1D"/>
<path d="M173 76.1425C168.571 33.358 132.429 0 88.494 0C44.559 0 8.42941 33.358 4 76.1425H173Z" fill="url(#paint0_linear)"/>
<path d="M4 93.8457C8.42941 136.63 44.571 169.988 88.494 169.988C132.417 169.988 168.571 136.63 172.988 93.8457H4Z" fill="#E7E7E9"/>
<path d="M88.4938 111.777C103.277 111.777 115.262 99.786 115.262 84.9946C115.262 70.2032 103.277 58.2124 88.4938 58.2124C73.7103 58.2124 61.7258 70.2032 61.7258 84.9946C61.7258 99.786 73.7103 111.777 88.4938 111.777Z" fill="#1D1E1D"/>
<path d="M88.4938 105.92C100.044 105.92 109.408 96.5511 109.408 84.9944C109.408 73.4378 100.044 64.0693 88.4938 64.0693C76.9434 64.0693 67.5798 73.4378 67.5798 84.9944C67.5798 96.5511 76.9434 105.92 88.4938 105.92Z" fill="#F7F7F7"/>
<path d="M88.4937 99.1151C96.2887 99.1151 102.608 92.7926 102.608 84.9933C102.608 77.1941 96.2887 70.8716 88.4937 70.8716C80.6986 70.8716 74.3794 77.1941 74.3794 84.9933C74.3794 92.7926 80.6986 99.1151 88.4937 99.1151Z" fill="#B8B5B5"/>
<path d="M88.4939 98.0739C95.7138 98.0739 101.567 92.218 101.567 84.9942C101.567 77.7705 95.7138 71.9146 88.4939 71.9146C81.274 71.9146 75.4211 77.7705 75.4211 84.9942C75.4211 92.218 81.274 98.0739 88.4939 98.0739Z" fill="#F7F7F7"/>
</g>
</g>
<defs>
<filter id="filter0_d" x="0" y="0" width="177" height="178" filterUnits="userSpaceOnUse" color-interpolation-filters="sRGB">
<feFlood flood-opacity="0" result="BackgroundImageFix"/>
<feColorMatrix in="SourceAlpha" type="matrix" values="0 0 0 0 0 0 0 0 0 0 0 0 0 0 0 0 0 0 127 0"/>
<feOffset dy="4"/>
<feGaussianBlur stdDeviation="2"/>
<feColorMatrix type="matrix" values="0 0 0 0 0 0 0 0 0 0 0 0 0 0 0 0 0 0 0.25 0"/>
<feBlend mode="normal" in2="BackgroundImageFix" result="effect1_dropShadow"/>
<feBlend mode="normal" in="SourceGraphic" in2="effect1_dropShadow" result="shape"/>
</filter>
<linearGradient id="paint0_linear" x1="187.335" y1="63.7349" x2="35.001" y2="66.9307" gradientUnits="userSpaceOnUse">
<stop stop-color="#B57E10"/>
<stop offset="0.240861" stop-color="#B57E10"/>
<stop offset="0.404291" stop-color="#F9DF7B"/>
<stop offset="0.59375" stop-color="#FFF3A6"/>
<stop offset="0.78125" stop-color="#F9DF7B"/>
<stop offset="1" stop-color="#B57E10"/>
</linearGradient>
<clipPath id="clip0">
<rect width="169" height="170" fill="white" transform="translate(4)"/>
</clipPath>
</defs>
</svg>
